Coordinates
version=1
nRows=8
nColumns=40
inDegrees=yes

Units are S.I. units (second, meters, Newtons, ...)
Angles are in degrees.

endheader
time	pelvis_tilt	pelvis_list	pelvis_rotation	pelvis_tx	pelvis_ty	pelvis_tz	hip_flexion_r	hip_adduction_r	hip_rotation_r	knee_angle_r	knee_angle_r_beta	ankle_angle_r	subtalar_angle_r	mtp_angle_r	hip_flexion_l	hip_adduction_l	hip_rotation_l	knee_angle_l	knee_angle_l_beta	ankle_angle_l	subtalar_angle_l	mtp_angle_l	lumbar_extension	lumbar_bending	lumbar_rotation	arm_flex_r	arm_add_r	arm_rot_r	elbow_flex_r	pro_sup_r	wrist_flex_r	wrist_dev_r	arm_flex_l	arm_add_l	arm_rot_l	elbow_flex_l	pro_sup_l	wrist_flex_l	wrist_dev_l
     41.41900000	     -5.24417057	     -5.43472984	     -8.95317131	      0.90063366	      0.92471486	      0.44639840	     25.57444497	     -1.67507126	     -7.19425147	     19.05922473	     19.05922473	      7.44354003	      5.21206633	      2.93183862	      8.42772551	     -5.94023001	     -8.26906277	     22.78706384	     22.78706384	     19.89462293	    -13.50033400	      2.13267445	     -9.93867932	      6.00223729	      1.47122136	    -18.34097890	    -11.17832941	    -11.51924887	     26.15337690	     46.78226741	      0.00000000	      0.00000000	     28.03432637	    -17.62115369	     -8.24851007	     69.14600448	     47.32117036	      0.00000000	      0.00000000
     41.43800000	     -5.47743246	     -5.12458781	     -8.99230589	      0.90110195	      0.92426180	      0.45003327	     25.22926257	     -1.46580787	     -7.32325145	     16.47413381	     16.47413381	      6.97125737	      7.03780331	      3.77672431	      7.76227189	     -5.79899559	     -8.61395395	     21.88705464	     21.88705464	     20.00586905	    -12.94531269	      2.05508895	     -9.57928645	      5.72381311	      1.61291138	    -18.57658524	    -10.82345438	    -11.39329137	     26.26863311	     46.76015284	      0.00000000	      0.00000000	     28.91579762	    -17.65415479	     -8.38965364	     70.16147252	     47.35777366	      0.00000000	      0.00000000
     41.45700000	     -5.42302404	     -4.98466490	     -8.97552851	      0.90200645	      0.92393515	      0.45371654	     24.76293367	     -1.36325464	     -8.20038780	     14.93616533	     14.93616533	      6.85631164	      9.76103949	      5.07489609	      6.72438806	     -5.83726553	     -9.11377550	     20.96977043	     20.96977043	     19.99469899	    -12.06021033	      1.26977320	     -9.65467359	      5.64906691	      1.61242409	    -18.87491950	    -10.73233258	    -11.03632536	     27.64406801	     46.64971577	      0.00000000	      0.00000000	     29.13217581	    -17.78457433	     -9.15389156	     73.07529012	     47.48098134	      0.00000000	      0.00000000
     41.47600000	     -5.48338731	     -4.83482495	     -8.86748331	      0.90291098	      0.92322378	      0.45754906	     24.49435894	     -1.17753438	     -8.27826852	     13.96158563	     13.96158563	      6.32056401	     10.68727199	      5.16437824	      5.95503904	     -5.86400861	     -9.31289129	     20.27382338	     20.27382338	     20.02601692	    -11.56036097	      0.72176276	     -9.55711268	      5.59970346	      1.45561609	    -18.72479512	    -10.66806253	    -10.39032903	     28.76320391	     46.53341861	      0.00000000	      0.00000000	     29.34104204	    -17.83042586	    -10.00396165	     75.27790651	     47.60121566	      0.00000000	      0.00000000
     41.49500000	     -5.48402701	     -4.71734191	     -8.70590429	      0.90401111	      0.92246266	      0.46150935	     24.27925910	     -1.02510610	     -8.22024913	     13.66148442	     13.66148442	      5.79881797	     11.03336811	      4.74462004	      5.16449672	     -5.91738188	     -9.39105065	     19.68958012	     19.68958012	     20.23062409	    -11.10330199	      0.60521551	     -9.49144942	      5.59755377	      1.62546910	    -18.25733622	    -10.52938610	    -10.15154643	     29.16746538	     46.49639880	      0.00000000	      0.00000000	     29.96337391	    -17.63873643	    -10.29052283	     76.47837473	     47.65253959	      0.00000000	      0.00000000
     41.51400000	     -5.52630653	     -4.63939865	     -8.46118266	      0.90522843	      0.92141208	      0.46559627	     24.14384931	     -0.85435350	     -8.04293596	     13.73439903	     13.73439903	      4.48364120	     10.69232106	      1.53318770	      4.60856836	     -6.10432604	     -9.52112873	     19.47091623	     19.47091623	     20.49662030	    -10.48241822	      0.26972191	     -9.42237984	      5.66708397	      1.18684317	    -17.48427689	    -10.60397527	     -9.68227552	     30.24843718	     46.40493072	      0.00000000	      0.00000000	     29.62894887	    -17.64753832	    -11.56986712	     79.09630241	     47.80413500	      0.00000000	      0.00000000
     41.53300000	     -5.48950595	     -4.54574434	     -8.19911686	      0.90666076	      0.92048806	      0.46983844	     24.03860478	     -0.70920829	     -7.61960158	     14.28755532	     14.28755532	      3.33188560	      9.62819765	     -1.79074959	      3.95789787	     -6.24183390	     -9.48466994	     19.25554929	     19.25554929	     20.81616307	    -10.08900431	      0.32699783	     -9.38236953	      5.72749106	      1.02815766	    -16.38968801	    -10.70854716	     -9.15753699	     30.51528065	     46.34815395	      0.00000000	      0.00000000	     29.67287976	    -17.46939628	    -12.35762720	     80.45085959	     47.90407436	      0.00000000	      0.00000000
     41.55200000	     -5.44607897	     -4.45424986	     -7.92083786	      0.90819160	      0.91973585	      0.47419859	     24.12313988	     -0.65375718	     -7.42024397	     15.48792042	     15.48792042	      3.29084651	      8.84495178	     -2.54729206	      3.31281653	     -6.38900947	     -9.41409147	     19.05416264	     19.05416264	     21.02421037	     -9.76501490	      0.33865953	     -9.33122170	      5.81128031	      1.17016761	    -15.33900065	    -10.76373469	     -9.15427878	     30.87770989	     46.33850247	      0.00000000	      0.00000000	     29.92023601	    -17.19030701	    -12.46371247	     80.98149087	     47.92585063	      0.00000000	      0.00000000
